HIERARCHY
ROOT Hips
{
	OFFSET -0.179506 -22.333345 2.821913
	CHANNELS 6 Xposition Yposition Zposition Zrotation Yrotation Xrotation 
	JOINT LeftUpLeg
	{
		OFFSET 6.951974 -9.140623 -0.681533
		CHANNELS 3 Zrotation Yrotation Xrotation
		JOINT LeftLeg
		{
			OFFSET 3.427654 -37.519855 -0.449580
			CHANNELS 3 Zrotation Yrotation Xrotation
			JOINT LeftFoot
			{
				OFFSET -1.359570 -39.796059 -4.369333
				CHANNELS 3 Zrotation Yrotation Xrotation
				JOINT LeftToe
				{
					OFFSET 2.635814 -5.579078 11.928840
					CHANNELS 3 Zrotation Yrotation Xrotation
					End Site
					{
						OFFSET 0.000000 0.000000 0.000000
					}
				}
			}
		}
	}
	JOINT RightUpLeg
	{
		OFFSET -6.767048 -9.052170 -0.431982
		CHANNELS 3 Zrotation Yrotation Xrotation
		JOINT RightLeg
		{
			OFFSET -3.829005 -38.256897 -0.885003
			CHANNELS 3 Zrotation Yrotation Xrotation
			JOINT RightFoot
			{
				OFFSET 1.577377 -39.841461 -4.231180
				CHANNELS 3 Zrotation Yrotation Xrotation
				JOINT RightToe
				{
					OFFSET -2.537174 -4.814398 12.334795
					CHANNELS 3 Zrotation Yrotation Xrotation
					End Site
					{
						OFFSET 0.000000 0.000000 0.000000
					}
				}
			}
		}
	}
	JOINT Spine
	{
		OFFSET -0.253288 10.896323 -2.669631
		CHANNELS 3 Zrotation Yrotation Xrotation
		JOINT Spine1
		{
			OFFSET 0.548704 13.518043 0.109247
			CHANNELS 3 Zrotation Yrotation Xrotation
			JOINT Spine2
			{
				OFFSET 0.145701 5.292222 2.542457
				CHANNELS 3 Zrotation Yrotation Xrotation
				JOINT Neck
				{
					OFFSET -0.277840 21.387037 -4.285703
					CHANNELS 3 Zrotation Yrotation Xrotation
					JOINT Head
					{
						OFFSET 0.515184 6.496960 5.134897
						CHANNELS 3 Zrotation Yrotation Xrotation
						End Site
						{
							OFFSET 0.000000 0.000000 0.000000
						}
					}
				}
				JOINT LeftShoulder
				{
					OFFSET 7.884473 12.174932 -3.408961
					CHANNELS 3 Zrotation Yrotation Xrotation
					JOINT LeftArm
					{
						OFFSET 9.097692 3.046888 -0.886815
						CHANNELS 3 Zrotation Yrotation Xrotation
						JOINT LeftForeArm
						{
							OFFSET 25.961220 -1.277207 -2.745643
							CHANNELS 3 Zrotation Yrotation Xrotation
							JOINT LeftHand
							{
								OFFSET 24.923361 0.898606 -0.117091
								CHANNELS 3 Zrotation Yrotation Xrotation
								End Site
								{
									OFFSET 0.000000 0.000000 0.000000
								}
							}
						}
					}
				}
				JOINT RightShoulder
				{
					OFFSET -8.175920 11.883285 -3.861528
					CHANNELS 3 Zrotation Yrotation Xrotation
					JOINT RightArm
					{
						OFFSET -9.601238 3.255117 -0.914307
						CHANNELS 3 Zrotation Yrotation Xrotation
						JOINT RightForeArm
						{
							OFFSET -25.374195 -1.332924 -2.140099
							CHANNELS 3 Zrotation Yrotation Xrotation
							JOINT RightHand
							{
								OFFSET -25.529810 0.777228 -0.555919
								CHANNELS 3 Zrotation Yrotation Xrotation
								End Site
								{
									OFFSET 0.000000 0.000000 0.000000
								}
							}
						}
					}
				}
			}
		}
	}
}
MOTION
Frames: 9
Frame Time: 0.033333
327.373352 334.932404 78.610077 -48.451427 -5.849912 102.723307 6.456560 -8.433986 -58.574102 -8.166087 18.517399 53.912335 8.788514 1.040244 -16.545656 nan nan nan -3.321140 -3.927870 14.971415 -1.377656 11.807313 28.978510 8.511105 -3.829811 6.966938 nan nan nan -5.705546 18.419184 18.222647 -2.795897 -0.162328 0.622226 -0.003339 5.833644 -3.533667 2.517316 -9.651045 -24.883255 10.418977 -9.259970 -19.221494 -13.798837 -5.033672 5.691284 -54.407913 13.692127 3.994706 3.229945 -29.506845 17.342985 -5.044082 -6.188771 -9.896377 8.435358 19.463325 -3.525514 46.995480 23.710314 4.261671 -15.756617 34.029142 -4.170797 18.205133 1.180202 -11.675977 
326.127960 333.710297 78.657173 -47.935222 -6.092795 102.449591 5.721288 -8.857696 -57.299844 -7.737891 18.571662 54.966148 9.226912 0.681249 -18.188789 nan nan nan -2.872996 -3.321196 13.826546 -0.893270 11.433046 32.471535 8.830893 -3.119369 8.389125 nan nan nan -6.125757 17.872925 18.434738 -2.861593 -0.195316 1.187899 -0.142078 5.718456 -4.078609 3.289468 -9.310489 -25.145227 10.562657 -9.409553 -19.559575 -14.256811 -5.178489 5.726626 -54.457754 12.176939 4.613988 4.124349 -30.435846 15.784609 -4.974615 -7.136628 -10.251542 8.854732 19.220329 -3.620232 48.093602 23.674966 5.830933 -14.952698 32.534799 -2.903767 18.216275 1.997297 -11.594014 
324.942627 332.475830 78.699417 -47.110085 -6.318575 101.934320 4.918176 -9.560057 -55.803782 -7.913975 18.126753 55.678932 9.628871 0.908020 -19.539965 nan nan nan -2.424117 -2.865895 12.806144 0.076220 11.075087 36.146450 8.810874 -3.371187 9.516760 nan nan nan -6.207700 17.206485 19.239281 -2.842056 -0.559299 1.188689 -0.284757 5.623174 -4.192478 3.822426 -9.297456 -25.691703 10.851320 -9.215612 -19.636309 -15.217875 -5.363001 5.159114 -54.103977 11.127820 5.130255 4.744903 -31.740740 14.516358 -4.981423 -7.243115 -9.787279 9.938931 19.248523 -3.467157 48.548443 22.617266 6.644211 -14.729369 32.631785 -2.063805 19.292338 1.977813 -10.306889 
323.709381 331.265198 78.661163 -46.149772 -6.372367 101.525011 4.437811 -10.160905 -54.467367 -8.477351 17.612962 56.304215 10.051876 1.353964 -21.039245 nan nan nan -1.518074 -2.063654 11.537619 1.170290 10.386055 40.003407 8.377059 -3.449433 8.006080 nan nan nan -6.508751 16.658137 19.691978 -2.571554 -0.378414 0.910082 -0.064171 5.112506 -3.909245 4.321644 -9.105848 -26.550474 10.720153 -9.368107 -19.316295 -16.181480 -5.595954 4.769886 -54.093758 9.592562 5.867614 5.849937 -32.813287 13.055793 -5.024098 -7.896469 -9.938832 10.785905 18.747088 -3.601444 49.182994 21.390869 7.702334 -14.159100 32.608587 -0.968239 20.219229 2.684522 -10.023300 
322.479462 330.015533 78.588699 -45.062296 -6.593200 101.041102 3.879090 -11.048522 -52.984268 -9.215853 17.092346 56.717704 10.668735 2.076676 -22.558957 nan nan nan -0.903846 -1.334943 10.198520 2.138971 9.299637 43.866833 8.300830 -3.467710 6.411284 nan nan nan -6.698769 16.090611 20.385367 -2.409727 -0.339896 0.492427 0.077877 4.465801 -3.642624 4.879594 -8.934587 -27.334037 10.535246 -9.539680 -18.876642 -17.166764 -5.738673 4.419185 -53.934760 7.985965 6.665126 7.046844 -33.955244 11.613562 -5.282062 -9.127428 -10.509377 11.524054 18.098724 -3.669296 50.132510 20.114802 8.933704 -13.725035 32.621571 -0.251105 20.518618 3.496560 -10.287472 
321.258423 328.718445 78.530632 -43.926986 -6.857693 100.497110 3.005156 -11.909070 -51.337604 -9.927331 16.262335 57.147873 11.086220 2.774109 -23.998179 nan nan nan -0.550351 -0.868759 8.928422 2.937710 8.120747 47.445743 8.197894 -3.025215 4.488804 nan nan nan -6.803925 15.533392 21.097670 -2.329122 -0.677114 0.054437 0.022602 4.207937 -3.366515 5.523342 -8.544603 -27.429700 10.638382 -9.701312 -19.069821 -18.195050 -6.319286 3.887982 -53.704096 6.609974 7.615128 8.187308 -35.235724 11.094756 -4.582358 -8.478164 -8.884779 12.692097 17.566980 -3.734867 50.701026 18.373799 9.580436 -13.091470 32.745048 0.806293 20.881276 3.293734 -10.649177 
320.059204 327.403870 78.464363 -42.701264 -7.194985 99.854070 1.819107 -12.690496 -49.451484 -10.331500 15.263621 57.548684 11.248050 2.999547 -25.445274 nan nan nan -0.429360 -0.532248 7.635633 3.156096 6.560178 50.917144 7.723173 -2.386919 1.764527 nan nan nan -6.783817 14.925491 21.862221 -2.355392 -1.000535 0.090594 -0.040921 3.778121 -3.356358 5.852798 -7.976558 -27.583379 10.786357 -9.734333 -19.336887 -19.217541 -7.063216 3.217604 -53.449449 5.293868 8.508621 9.456083 -36.528901 10.349499 -4.284960 -8.318690 -7.251149 13.576077 17.070565 -4.041952 51.515014 16.466177 10.125561 -12.461197 32.638205 1.694633 22.294384 2.882214 -10.915299 
318.876801 326.251953 78.368088 -41.678886 -7.117503 99.648976 1.140994 -12.751115 -48.081854 -10.705491 14.291045 58.147387 11.461516 3.281779 -26.975364 nan nan nan 0.332787 0.208588 5.122418 3.275255 5.028117 55.368418 7.367146 -2.251591 -0.914371 nan nan nan -6.700325 13.898683 22.416642 -2.373530 -0.891259 -0.425465 -0.108322 3.439312 -3.220077 6.182675 -7.973513 -27.836918 11.059469 -9.654128 -18.855913 -20.445247 -7.887257 2.726710 -52.748855 4.139297 9.357831 10.735271 -38.316777 9.229265 -4.862029 -9.828006 -6.820468 14.336081 17.510605 -3.546639 52.265321 13.920408 10.793113 -13.149080 32.742436 0.963264 23.807462 3.432826 -12.313666 
317.672974 325.042084 78.279518 -40.380099 -7.045954 99.310112 0.093048 -12.650894 -46.457881 -11.373186 12.621060 58.637499 11.792808 4.151025 -28.251121 nan nan nan 0.941081 0.417363 2.840777 3.434476 3.825552 59.353670 6.799960 -2.734402 -3.513811 nan nan nan -6.525931 13.118285 23.099693 -2.263003 -0.933945 -1.296966 -0.022354 2.918118 -2.687612 6.614658 -8.346859 -27.584204 11.488906 -9.222938 -18.974843 -21.675063 -8.856728 2.342499 -52.381075 2.498051 10.612866 12.386383 -39.526622 8.336935 4.019809 -8.466848 -4.196506 15.201507 17.039765 -3.696078 52.698042 11.433037 11.235318 -12.371141 32.963604 1.429905 21.087110 3.311345 -12.561366 
